<svg width="1055" height="990" viewBox="0 0 1055 990" fill="none" xmlns="http://www.w3.org/2000/svg">
<path d="M121.976 691.269C121.108 685.086 107.026 654.615 80.4055 592.658C65.7607 558.574 55.4938 516.76 47.8841 466.07C40.2743 415.381 37.3416 356.48 37.7512 313.63C38.1608 270.779 42.0015 245.765 47.0354 228.685C52.0693 211.604 58.18 203.216 73.0165 188.373C87.8529 173.531 111.23 152.488 141.791 130.928C172.352 109.367 209.388 87.925 239.209 73.9373C269.029 59.9495 290.511 54.0655 337.22 48.8698C383.929 43.6741 455.213 39.345 496.11 38.0907C537.007 36.8364 545.357 38.788 558.08 42.9523C570.803 47.1166 587.646 53.4343 613.275 65.187C638.903 76.9398 672.807 93.936 708.548 116.997C744.29 140.058 780.841 168.669 809.136 192.626C837.43 216.582 856.36 235.017 877.313 257.937C898.265 280.858 920.667 307.705 936.2 329.343C951.733 350.981 959.719 366.597 970.424 395.073C981.13 423.549 994.313 464.412 1003.48 522.298C1012.65 580.184 1017.4 653.855 1016.21 707.449C1015.02 761.043 1007.75 792.328 1001.81 813.077C993.085 843.537 980.795 860.634 969.426 874.637C960.987 885.031 945.739 895.552 921.233 910.802C907.422 919.396 889.243 927.389 874.511 933.851C859.778 940.314 848.639 944.405 817.401 948.086C786.162 951.767 735.162 954.914 673.136 948.944C611.111 942.974 539.607 927.792 498.228 918.032C456.85 908.273 447.764 904.396 433.585 894.583C419.406 884.77 400.408 869.138 375.106 840.77C349.804 812.402 318.774 771.772 297.847 741.716C276.92 711.661 267.036 693.411 260.33 680.089C249.804 659.179 245.036 641.862 241.789 623.703C238.559 605.639 243.878 576.008 255.738 536.841C261.702 517.147 275.283 500.248 291.358 480.783C307.433 461.319 327.568 440.422 342.535 426.384C365.613 404.74 392.823 393.864 426.114 386.165C442.465 382.384 458.829 384.002 476.772 388.648C494.715 393.294 514.025 402.235 533.653 413.462C553.28 424.688 572.638 437.929 593.813 455.699C614.988 473.468 637.392 495.365 650.415 508.651C678.272 537.07 682.106 572.885 680.369 590.322C678.094 613.161 642.306 632.501 611.184 645.186C572.629 660.901 545.29 646.949 526.899 639.676C505.772 631.322 491.002 606.303 484.864 588.907C481.92 580.56 487.021 571.95 492.001 566.806C494.55 564.823 497.144 564.111 499.82 564.024C502.496 563.936 505.175 564.494 508.901 566.456" stroke="url(#paint0_linear_772_1009)" stroke-width="75.4282" stroke-linecap="round"/>
<defs>
<linearGradient id="paint0_linear_772_1009" x1="1016.39" y1="494.998" x2="37.7139" y2="494.998" gradientUnits="userSpaceOnUse">
<stop stop-color="#025ACD"/>
<stop offset="1" stop-color="#018EF2"/>
</linearGradient>
</defs>
</svg>
